HIERARCHY
ROOT Hips
{
  OFFSET 263.056 91.6644 -274.608
  CHANNELS 6 Xposition Yposition Zposition Zrotation Xrotation Yrotation
  JOINT LeftUpLeg
  {
    OFFSET 8.64259 1.95398 -2.38835
    CHANNELS 3 Zrotation Xrotation Yrotation
    JOINT LeftLeg
    {
      OFFSET 43.7702 0 0
      CHANNELS 3 Zrotation Xrotation Yrotation
      JOINT LeftFoot
      {
        OFFSET 40.6238 0 0
        CHANNELS 3 Zrotation Xrotation Yrotation
        JOINT LeftToeBase
        {
          OFFSET 12.7242 0 0
          CHANNELS 3 Zrotation Xrotation Yrotation
          End Site
          {
            OFFSET 0 0 0
          }
        }
      }
    }
  }
  JOINT RightUpLeg
  {
    OFFSET -8.2249 1.95398 -2.59336
    CHANNELS 3 Zrotation Xrotation Yrotation
    JOINT RightLeg
    {
      OFFSET 43.5653 0 0
      CHANNELS 3 Zrotation Xrotation Yrotation
      JOINT RightFoot
      {
        OFFSET 40.6238 0 0
        CHANNELS 3 Zrotation Xrotation Yrotation
        JOINT RightToeBase
        {
          OFFSET 12.7242 0 0
          CHANNELS 3 Zrotation Xrotation Yrotation
          End Site
          {
            OFFSET 0 0 0
          }
        }
      }
    }
  }
  JOINT Spine
  {
    OFFSET 0.165834 0.87714 6.61349
    CHANNELS 3 Zrotation Xrotation Yrotation
    JOINT Spine1
    {
      OFFSET 7.38963 1.71661e-005 0
      CHANNELS 3 Zrotation Xrotation Yrotation
      JOINT Spine2
      {
        OFFSET 11.9445 1.14441e-005 0
        CHANNELS 3 Zrotation Xrotation Yrotation
        JOINT Spine3
        {
          OFFSET 14.7254 4.19617e-005 0
          CHANNELS 3 Zrotation Xrotation Yrotation
          JOINT Spine4
          {
            OFFSET 10.9679 0 0
            CHANNELS 3 Zrotation Xrotation Yrotation
            JOINT RightShoulder
            {
              OFFSET 2.46616 -1.6653 3.69651
              CHANNELS 3 Zrotation Xrotation Yrotation
              JOINT RightArm
              {
                OFFSET 13.0012 0 0
                CHANNELS 3 Zrotation Xrotation Yrotation
                JOINT RightForeArm
                {
                  OFFSET 28.7848 1.52588e-005 0
                  CHANNELS 3 Zrotation Xrotation Yrotation
                  JOINT RightHand
                  {
                    OFFSET 26.5688 1.52588e-005 0
                    CHANNELS 3 Zrotation Xrotation Yrotation
                    End Site
                    {
                      OFFSET 0 0 0
                    }
                  }
                }
              }
            }
            JOINT LeftShoulder
            {
              OFFSET 2.38034 -1.29275 -3.7523
              CHANNELS 3 Zrotation Xrotation Yrotation
              JOINT LeftArm
              {
                OFFSET 16.3182 6.10352e-005 0
                CHANNELS 3 Zrotation Xrotation Yrotation
                JOINT LeftForeArm
                {
                  OFFSET 27.0901 0 0
                  CHANNELS 3 Zrotation Xrotation Yrotation
                  JOINT LeftHand
                  {
                    OFFSET 24.5451 1.52588e-005 0
                    CHANNELS 3 Zrotation Xrotation Yrotation
                    End Site
                    {
                      OFFSET 0 0 0
                    }
                  }
                }
              }
            }
            JOINT Neck
            {
              OFFSET 5.0226 -0.0266342 0
              CHANNELS 3 Zrotation Xrotation Yrotation
              JOINT Head
              {
                OFFSET 6.69364 2.86102e-005 0
                CHANNELS 3 Zrotation Xrotation Yrotation
                End Site
                {
                  OFFSET 0 0 0
                }
              }
            }
          }
        }
      }
    }
  }
}
MOTION
Frames:	14
Frame Time:	0.0416667
44.8349 87.3589 -34.782 84.0693 -55.8221 86.4713 -164.501 53.8939 89.3473 -73.176 13.4307 -2.49425 54.3856 -2.10352 7.22076 40.067 13.0466 4.47617 179.817 27.4737 77.1073 -45.519 1.62288 -6.84628 65.1364 -4.30938 -2.37572 57.2397 2.4508 3.64431 0.103624 9.68311 -90.2979 7.5075 0.0778306 -0.591644 -4.16358 0.0517237 -0.594491 -26.6978 0.252047 -0.540891 -6.68517 0.25203 -0.540897 81.8732 -47.7125 -113.979 23.7531 2.52063 8.96794 4.27763 1.35942 -80.7733 -33.1844 -1.61758 -0.256954 -107.1 -42.8256 50.3776 -47.1717 22.6549 24.2742 5.65596 14.873 -45.322 5.33886 0.335086 1.93884 14.5791 17.3495 1.11906 11.4441 18.4379 15.752 
47.9034 88.8966 -32.0906 82.5629 -52.9706 85.2167 -162.535 55.748 90.1956 -67.1565 13.4652 -3.79359 50.1127 -7.5547 3.00544 39.5224 12.3112 3.63585 178.608 22.253 76.7584 -39.7339 2.08181 -7.04502 63.342 -3.75643 -2.09582 58.5019 2.26376 2.11702 0.185242 9.50595 -90.1356 7.86206 0.310656 -0.284282 -3.80888 0.29783 -0.297687 -26.3442 0.381736 -0.177774 -6.33157 0.381712 -0.17778 82.641 -46.9513 -113.092 24.765 1.3672 9.01637 1.05043 1.6566 -86.3664 -32.9849 -1.69218 0.221792 -105.694 -42.1432 52.1297 -51.4376 23.6134 30.2601 7.47817 13.7746 -50.8159 7.63801 0.388997 1.0932 15.39 16.4431 -0.175381 10.6312 17.857 16.3515 
51.6925 90.9601 -29.5041 81.5897 -49.5549 84.9426 -160.332 56.1151 90.0041 -60.8273 14.5902 -5.56361 47.6631 -10.2134 -0.1806 33.6646 5.36634 5.62588 176.766 15.7983 76.2042 -32.14 0.0920736 -6.71967 58.6229 -1.84073 -1.00524 58.3005 1.59573 -1.22873 0.225236 9.28255 -90.0656 8.30925 0.420669 -0.15533 -3.36163 0.413431 -0.173703 -25.8974 0.447901 -0.021724 -5.88471 0.44791 -0.0217202 83.7957 -46.7532 -111.375 25.6739 -0.723341 9.92099 -1.96322 1.64806 -90.5934 -32.8799 -1.84535 0.949326 -104.193 -41.3703 54.0237 -55.5703 24.7288 35.2382 7.19324 10.3904 -55.6967 7.15644 0.376146 1.22508 14.1807 14.9506 -1.50658 11.0989 16.8161 16.0698 
56.6258 93.1473 -27.0682 79.8393 -46.5923 84.2036 -158.887 54.7731 89.2389 -53.1746 17.5023 -7.67996 44.5113 -12.6824 -1.96421 31.6038 3.00015 2.86435 174.409 10.2497 75.0185 -23.4606 -1.74855 -5.61315 49.9761 1.32171 1.36065 56.1942 1.71915 -0.0516285 0.256073 8.93416 -90.002 9.0057 0.50998 -0.0393473 -2.66513 0.507727 -0.0617639 -25.2011 0.498204 0.115742 -5.18847 0.498219 0.115738 84.6854 -46.6674 -110.018 26.3092 -3.68839 11.6423 -4.00942 2.00873 -94.6399 -31.3121 -1.55146 0.309599 -102.54 -40.6136 56.2127 -59.8482 25.8705 39.4917 6.33696 6.84636 -60.3079 8.3391 0.320072 0.0416013 11.4668 13.7588 -2.40202 11.8619 15.9344 15.6388 
62.1616 95.3659 -25.219 77.7786 -45.5842 84.7293 -159.014 53.0412 90.5547 -46.613 18.9875 -9.41195 42.9995 -13.9293 -3.02629 28.4202 -0.740449 2.70603 172.624 4.53116 75.2224 -11.3574 -0.250561 -4.86987 38.2406 4.02298 4.31677 45.4984 1.63087 7.14508 0.50397 8.51819 -90.0809 9.83874 0.967854 -0.238064 -1.83188 0.956479 -0.280431 -24.3699 0.994663 0.0638572 -4.35728 0.994674 0.0638624 85.363 -47.054 -108.828 26.4302 -6.97778 14.3575 -6.88243 4.41612 -99.0359 -29.0807 -1.93811 2.42623 -101.36 -40.1277 57.8348 -63.097 24.4588 41.9552 7.57168 5.65537 -63.9434 10.4105 0.605919 1.84142 8.42009 12.5381 -3.07672 12.491 14.8448 14.739 
67.7676 97.1425 -23.6437 78.7202 -44.6033 88.5255 -159.989 49.118 92.9972 -41.8236 19.5796 -9.91651 41.3413 -14.9588 -3.5329 30.7973 2.27474 -0.157059 173.005 0.293316 77.3883 -9.33107 -0.70345 -5.43452 33.9209 5.58567 6.29178 24.4437 -0.36618 -0.112551 0.749187 8.3632 -90.2735 10.1515 1.36808 -0.658547 -1.51889 1.3378 -0.718135 -24.0596 1.50276 -0.216848 -4.04695 1.50275 -0.216863 85.8774 -47.2602 -107.958 27.1681 -9.98192 17.1195 -12.7552 6.0332 -101.288 -28.4439 -1.84839 2.56304 -100.151 -39.8441 59.6275 -64.4236 22.3085 43.686 4.91471 2.17395 -66.219 11.4134 0.403998 -0.272067 6.13155 11.1924 -3.75754 13.3801 13.6022 13.6376 
73.0692 97.8741 -21.9149 78.3964 -42.4865 89.7942 -160.336 45.8211 92.9414 -38.833 20.1947 -10.6157 42.0629 -14.5045 -4.14023 27.1635 -2.07854 1.73014 173.679 -0.241272 78.3555 -14.6767 0.0989668 -5.09665 37.8098 4.64588 4.98214 19.2633 -0.900039 2.18869 0.758766 8.15248 -90.2864 10.5734 1.3796 -0.693742 -1.09705 1.34776 -0.753799 -23.6378 1.52432 -0.246951 -3.62514 1.52431 -0.246963 86.1795 -46.3941 -107.763 29.6541 -11.8395 19.8472 -16.4574 8.10426 -103.03 -27.414 -2.04956 3.87378 -98.5506 -39.9296 62.2332 -63.725 19.0479 43.3162 3.66313 0.67844 -66.7344 12.6338 0.378471 -0.808317 5.50567 10.7749 -2.88517 13.2186 12.6744 11.3728 
78.0508 97.6827 -20.38 78.3367 -39.6349 90.6975 -160.754 42.2966 91.9321 -37.1196 19.9746 -10.9322 42.4217 -14.1898 -4.03588 24.9071 -4.98911 3.04226 174.414 0.424096 79.4313 -23.5207 1.27857 -4.8592 42.4589 3.57795 3.60188 21.8372 -0.698802 2.18466 0.749891 7.98863 -90.241 10.9007 1.38162 -0.609558 -0.769701 1.35345 -0.669787 -23.3106 1.50094 -0.166055 -3.29797 1.50093 -0.166065 86.8198 -46.1128 -106.839 31.8029 -13.1032 22.705 -18.2688 8.18691 -102.41 -25.6936 -1.92584 3.98422 -97.3713 -40.1995 64.2523 -61.6616 17.1539 41.9089 3.83866 0.942508 -65.9537 17.3384 0.819683 0.815718 5.29542 9.85454 -2.84465 13.3046 11.5488 9.75943 
82.995 96.7029 -19.0076 79.7094 -35.5559 92.8387 -161.814 37.411 91.3196 -36.2705 18.8406 -10.2676 41.7158 -14.2864 -1.54623 34.4689 6.3691 -7.59774 174.419 0.0206371 81.1103 -32.7429 2.30435 -4.60845 44.8598 3.36261 3.22455 23.8015 -0.240189 -0.632711 0.555488 7.99886 -90.2239 10.8787 1.00259 -0.539537 -0.792005 0.977843 -0.583141 -23.3301 1.11837 -0.213243 -3.31742 1.11839 -0.213249 86.5083 -46.5239 -107.203 33.5172 -14.2343 25.1512 -20.6241 8.26813 -99.3466 -25.5505 -1.89995 4.03998 -96.3723 -41.3437 66.3084 -56.4157 13.416 38.7391 -0.120621 -2.21403 -64.9777 15.7908 1.18859 3.61958 5.50439 9.02063 -3.05992 13.1212 10.5335 8.12896 
88.0509 95.4839 -17.5831 79.4836 -33.3244 92.9934 -162.308 34.0084 90.3671 -38.1043 19.5402 -10.7996 49.3507 -8.20854 2.41706 37.3251 9.22628 -5.90544 175.087 1.25394 82.1532 -40.7277 2.84109 -4.80382 45.943 2.74663 2.62525 21.6107 -1.02443 4.65315 0.557263 7.9097 -90.099 11.057 1.06335 -0.300686 -0.613502 1.04907 -0.34721 -23.1522 1.10455 0.0328321 -3.13955 1.10456 0.032833 85.7381 -46.887 -108.296 34.3451 -13.4694 27.7976 -17.7982 6.39879 -96.4555 -22.2444 -1.68258 4.00974 -97.3245 -43.3712 65.5631 -50.1974 8.84265 35.322 -0.112321 -2.84081 -62.7374 20.8403 1.23039 2.01468 4.86398 8.30755 -2.11675 13.9611 9.39625 6.00453 
92.9391 93.927 -16.3046 78.8096 -32.4968 92.648 -162.517 31.3936 89.17 -41.4762 18.8 -11.1008 58.2338 0.0288381 5.96382 37.6154 9.72429 -1.67296 177.394 4.6361 83.8144 -50.0721 2.4263 -6.13176 45.6721 2.56364 2.48506 22.9476 -0.896559 4.66349 0.665707 7.78891 -89.8775 11.2955 1.38189 0.107165 -0.374713 1.38528 0.0462248 -22.9151 1.28576 0.517592 -2.90244 1.28578 0.517586 84.8108 -48.1458 -109.319 34.7786 -13.6285 29.6654 -15.0622 4.30171 -90.0112 -19.8467 -1.22376 2.26724 -98.1685 -45.1771 64.9328 -43.1615 2.97698 32.196 -1.67649 -5.3517 -63.9114 23.8758 1.73761 3.49094 4.17971 7.49533 -2.40423 15.1668 8.45993 4.46112 
97.457 91.8623 -15.1704 78.4988 -29.8484 92.555 -163.657 29.3247 87.2089 -44.5141 20.3797 -10.112 60.3208 4.14386 11.6515 48.5362 20.6431 -4.42709 179.109 9.329 85.6476 -60.8632 5.2516 -6.45852 45.3387 2.01106 2.06126 24.2305 -0.842768 5.48888 0.501187 7.83121 -89.6633 11.2087 1.15408 0.556631 -0.461879 1.17745 0.505275 -22.999 0.93344 0.877757 -2.98635 0.933442 0.877748 84.5214 -49.2169 -109.405 35.092 -16.0268 29.7583 -12.4447 1.69329 -82.8296 -18.4635 -1.00892 1.32441 -98.1963 -46.8264 65.5025 -36.5339 -1.53343 27.9258 -4.07413 -7.08924 -67.5614 30.1873 2.5435 4.61571 5.55055 7.05963 -2.80017 15.3365 7.824 2.545 
101.306 89.9374 -13.9332 77.8802 -25.1404 91.5432 -166.27 28.1505 84.6281 -48.5768 20.3004 -7.62628 63.0534 7.46308 12.2777 52.792 23.7504 -8.13589 179.913 16.4653 87.6013 -72.2609 9.92228 -5.92826 46.9513 0.441375 0.749264 22.5517 -1.41012 8.65353 0.116892 7.92409 -89.3495 11.0211 0.534271 1.24322 -0.650288 0.588437 1.21851 -23.1808 0.135943 1.34629 -3.16814 0.135957 1.3463 83.5398 -50.5732 -110.425 35.3325 -17.5002 29.3997 -11.2676 -2.19148 -75.1951 -14.6427 -1.02483 3.11011 -99.704 -47.0523 63.3303 -29.6297 -6.15251 23.4933 -2.39235 -5.61281 -73.32 34.7319 3.63825 6.70937 6.68026 6.3046 -4.09839 15.8951 7.14825 1.21665 
105.237 88.4994 -12.8085 77.9712 -20.9908 90.8379 -168.992 24.8914 82.7603 -49.3183 22.351 -6.11491 64.6508 11.4551 16.2173 54.2137 25.3933 -7.15083 -179.324 24.6383 89.2797 -81.8294 10.7814 -5.5456 46.7893 -0.0481878 0.354063 25.7423 -0.706155 5.82765 -0.158369 8.1321 -89.1316 10.6056 0.0840613 1.71806 -1.06649 0.159607 1.71268 -23.5929 -0.436087 1.66393 -3.58026 -0.436081 1.66393 83.2738 -51.4612 -110.519 35.7974 -19.757 30.1325 -8.87889 -4.72461 -69.1525 -11.8444 -0.807752 2.73613 -101.396 -45.5969 60.2147 -24.2425 -9.80229 18.1458 3.6089 -3.28859 -80.0834 32.4873 3.37054 6.62363 7.85419 5.36691 -4.35565 16.7354 6.1912 0.432094 
